<svg xmlns="http://www.w3.org/2000/svg" viewBox="0 0 160 160" role="img" aria-labelledby="title desc">
  <title id="title">Cafe Fusiones</title>
  <desc id="desc">Marca vectorial inspirada en el espiral de Cafe Fusiones.</desc>
  <rect width="160" height="160" rx="32" fill="#5A2E1B"/>
  <path d="M102 37c-20 1-37 16-39 36-2 18 10 34 28 37 14 2 27-7 29-20 2-11-5-21-16-23-9-2-18 4-20 13-1 8 4 15 12 16 6 1 12-3 13-9" fill="none" stroke="#D4A017" stroke-width="9" stroke-linecap="round"/>
  <path d="M67 29c16 14 23 31 22 51-.7 17-8 32-20 45" fill="none" stroke="#B81E2D" stroke-width="9" stroke-linecap="round"/>
  <path d="M52 105c15 19 38 28 62 22" fill="none" stroke="#F5EFE6" stroke-width="7" stroke-linecap="round" opacity=".9"/>
  <circle cx="57" cy="121" r="8" fill="#B81E2D"/>
  <circle cx="114" cy="44" r="7" fill="#D4A017"/>
</svg>
